<svg width="833" height="615" viewBox="0 0 833 615" fill="none" xmlns="http://www.w3.org/2000/svg">
<path d="M53 452.5C13.2151 502 4 570 0 615C13.8333 601.333 39.5 573.569 80 555.5C131 532.746 196.5 520.5 239 517C260.572 515.224 292.5 513 309 513C348 513 442 501.5 494.5 489C561 473.167 625 451.5 652 429.5C659.526 423.368 659.016 413.998 629 417C619 418 529.914 436.946 456 443.5C354.5 452.5 326.5 448 286 435.5C274.534 431.961 237.5 414.5 217.5 376C197.5 337.5 197 289.5 196 231.5C195 173.5 183.5 152.5 169.5 152.5C160.445 152.5 150.79 178.5 147 196.5C143.21 214.5 132.379 287.5 127.5 310.5C120.394 344 96 399 53 452.5Z" fill="#039058"/>
<path d="M356 436C318.5 436 291.5 424.333 278.5 418.5L279.045 418.527C289.463 419.049 316.315 420.393 345 420C388 419.411 414 411 434.5 406C451.838 401.771 504.5 385 520.5 378.5C525.922 376.297 565.847 359.273 581 352C606 340 621.5 334.5 626 339C631.025 344.025 616.067 358.562 610.5 364.5C595.5 380.5 554.5 405.5 544 411C535.643 415.377 525.5 421.6 512.5 425.5C499.5 429.4 439.5 434.5 428.5 434.5C424 434.5 395 436 356 436Z" fill="#51A885"/>
<path d="M359.5 386C336.721 391.395 296 402 254.5 405.5C286 407.5 353 409 366.5 408C385 406.63 409 401.5 423 398C437 394.5 465.497 387.252 476 382C488 376 504.5 363.5 511.5 357.5C520.25 350 531.244 338.756 536.5 333.5C542.5 327.5 546 321.5 543 318.5C539.5 315 532.667 317 526 319C521 320.5 503 328.5 490.5 335C481.751 339.55 440.975 357.436 428 362.5C407.5 370.5 378.5 381.5 359.5 386Z" fill="#51A885"/>
<path d="M382.5 353C374 358.5 345.5 374 329 383C347.833 377.5 386.3 366.2 389.5 365C393.5 363.5 424.553 352.631 428.5 350C434.5 346 442.545 339.939 448.5 332C453 326 454 315.5 451 313.5C448 311.5 444.056 314 438.5 317C430.167 321.5 418 329.5 411 334.5C402.04 340.9 388.908 348.853 382.5 353Z" fill="#51A885"/>
<path d="M773 159C816.761 101.867 828.5 57 833 0.00012207C819.167 13.6668 800.5 36.5 740 59C694.484 75.9275 685 76 642.5 79.5C620.928 81.2765 580 83.5 552 85C510.559 87.22 430.159 101.645 378 115.5C314 132.5 286.125 154.5 286.5 159C287 165 288.984 165.002 319 162C329 161 358.5 154 378 151C464.064 137.759 492 138 534.5 138C546.5 138 609 144 634 173.5C652.629 195.482 673 233 670 298.5C667 364 679 385 693 385C702.055 385 708.5 366 712.5 341.5C716.5 317 720 267.5 733 234C746.935 198.091 755 182.5 773 159Z" fill="#FEC132"/>
<path d="M523.5 148C566.5 147 583 155 601.516 163C591.516 162.5 560.561 159.626 531.5 162.5C486 167 468 173.5 437 183C422.73 187.373 400.5 196 384.5 202.5C379.078 204.703 360 212.5 342.5 221C321.534 231.183 314 232 312 230C306.975 224.975 313.154 218.163 319 212.5C335 197 343 191.5 354 184.5C370.364 174.087 393 161 406.5 157.5C420 153.999 441.5 152 455 150.5C459.472 150.003 484.511 148.906 523.5 148Z" fill="#FFDB88"/>
<path d="M517 195C541.5 187 580.094 177.818 621.594 174.318C590.094 172.318 536 170.5 513 173.5C494.605 175.899 470.359 181.977 456.5 186C441 190.5 435.336 193.585 425.5 200C414 207.5 409.5 210.5 402.5 216.5C393.75 224 391.5 226 386.5 231.5C380.792 237.779 379 244.5 382 247.5C385.5 251 409.5 240 416 237C425.749 232.5 434.5 228 449 221.5C469.08 212.499 498.439 201.061 517 195Z" fill="#FFDB88"/>
<path d="M521.5 214C530 208.5 545 201 561.5 192C542.667 197.5 519.415 203.3 516.215 204.5C512.215 206 483 215.643 477.215 219.5C471.215 223.5 465.455 227.56 459.5 235.5C455 241.5 454.215 248 457.215 250C460.215 252 468.273 247 474 243.5C483 238 487 234.5 494.5 230C503.942 224.335 515.092 218.146 521.5 214Z" fill="#FFDB88"/>
</svg>
